<?xml version="1.0" encoding="UTF-8"?>
<svg id="Layer_1" data-name="Layer 1" xmlns="http://www.w3.org/2000/svg" viewBox="0 0 1224 288">
  <defs>
    <style>
      .cls-1 {
        fill: #f1f10a;
      }

      .cls-1, .cls-2 {
        stroke: #000;
        stroke-miterlimit: 10;
        stroke-width: 3px;
      }

      .cls-3 {
        font-family: ArialRoundedMTBold, 'Arial Rounded MT Bold';
        font-size: 47.33px;
      }

      .cls-2 {
        fill: #87ea07;
      }
    </style>
  </defs>
  <g>
    <path class="cls-1" d="M553.98,144.57l35.8-.23c16.85-.11,29.35-14.42,28.16-31.14-1.11-6.52-6.54-12.14-13.63-12.24l-44.52-.65-37.75,118.13-39.99-.21,47.3-148.62,86.62.28c11.26.04,21.06,4.9,29.61,11.13,10.26,9.9,14.22,23.24,11.75,37.12-4.88,27.36-24.78,47.8-52.96,52.93l19.95,47.09-42.54.25-27.81-73.83Z"/>
    <polygon class="cls-2" points="337.63 218 289.28 218.39 246.92 155.33 225.99 218.4 185.59 218.28 214.61 130.07 233.84 69.63 274.54 69.58 254.53 133.46 332.27 69.69 381.11 69.86 288.02 146.23 337.63 218"/>
    <polygon class="cls-1" points="748.48 190.77 743.89 107.7 718.6 144.78 669.03 218.38 626.98 218.02 730.76 69.54 777.71 69.59 790 218.4 696.78 218.21 714.9 190.79 748.48 190.77"/>
    <path class="cls-2" d="M155.14,151.3c14.62-14.83,13.79-37.78-.62-51.83-20.42-19.9-57.3-17.12-73.99,4-10.31,13.05-9.52,30.21-2.2,44.54,2.15,4.21,4.92,10.73,2.68,15.05-5.11,9.86-11.18,18.52-13.8,29.42l-9.36,25.82-49.58.03L60.68,69.57l97.31.28c12.93.04,24.34,5.42,33.33,13.72,7.5,8.52,10.53,18.9,9.71,30.13-2.69,37.03-30.88,65.01-68.01,67.57l-40.25.44c5.46-11.84,17.72-13.63,30.58-15.02,12.1-1.3,23.01-6.5,31.78-15.39Z"/>
    <polygon class="cls-1" points="1215.72 70.01 1126.7 159.05 1107.65 218.46 1067.41 218.19 1086.89 158.68 1051.88 69.65 1095.05 69.59 1115.45 128.2 1170.42 69.6 1215.72 70.01"/>
    <polygon class="cls-2" points="472.15 188.54 463.16 218.31 348.98 218.36 361.72 179.18 396.33 69.62 436.48 69.68 399.04 188.05 472.15 188.54"/>
    <polygon class="cls-1" points="1052.94 188.32 1043.56 218.32 930.21 218.17 977.1 69.61 1017.47 69.64 979.66 188.04 1052.94 188.32"/>
    <polygon class="cls-1" points="923.78 188.46 914.4 218.35 801.41 218.24 828.14 133.11 847.79 69.58 888.34 69.64 850.28 188.16 923.78 188.46"/>
    <path class="cls-2" d="M138.28,106.73c-1.89,5.59-10.89,5.48-14.38,1.38-1.86-2.19-1.22-5.53-.07-7.11,1.86-2.56,4.47-3.31,7.98-2.83s8.11,3.71,6.47,8.56Z"/>
    <path class="cls-2" d="M122.15,154.11c-4.43-.59-6.99-3.64-6.75-7.1.29-4.21,3.54-6.56,7.97-6.42s7.32,3.24,7.23,7.35-3.69,6.8-8.45,6.17Z"/>
    <path class="cls-2" d="M105.01,136.34c-.21,4.18-4.46,6.21-7.47,6.19-3.78-.02-7.75-2.3-7.74-6.64s3.8-7.09,7.62-6.87c3.5.21,7.83,2.4,7.58,7.31Z"/>
    <path class="cls-2" d="M106.85,112.71c-1.34,2.82-4.79,3.78-7.06,3.66-2.45-.12-5.5-1.16-6.77-3.75-1.56-3.2.26-6.55,2.09-7.95,2.81-2.15,6.57-2,9.11-.62,2.67,1.45,4.36,5.02,2.63,8.67Z"/>
    <path class="cls-2" d="M146.7,137.39c-4.28.94-8.51-1.35-9.41-4.39-1.28-4.33,1.47-8.43,6-8.77,4.1-.31,7.29,1.5,8.12,4.96s-.28,7.22-4.71,8.19Z"/>
  </g>
  <text class="cls-3" transform="translate(1145.39 243.65)"><tspan x="0" y="0">TM</tspan></text>
  <text class="cls-3" transform="translate(1145.39 243.65)"><tspan x="0" y="0">TM</tspan></text>
</svg>